<?xml version="1.0" encoding="UTF-8" standalone="no"?>
<svg
   xmlns:dc="http://purl.org/dc/elements/1.1/"
   xmlns:cc="http://creativecommons.org/ns#"
   xmlns:rdf="http://www.w3.org/1999/02/22-rdf-syntax-ns#"
   xmlns:svg="http://www.w3.org/2000/svg"
   xmlns="http://www.w3.org/2000/svg"
   viewBox="0 0 1333.3333 329.05466"
   height="329.05466"
   width="1333.3333"
   xml:space="preserve"
   id="svg2"
   version="1.1"><metadata
     id="metadata8"><rdf:RDF><cc:Work
         rdf:about=""><dc:format>image/svg+xml</dc:format><dc:type
           rdf:resource="http://purl.org/dc/dcmitype/StillImage" /></cc:Work></rdf:RDF></metadata><defs
     id="defs6"><clipPath
       id="clipPath18"
       clipPathUnits="userSpaceOnUse"><path
         id="path16"
         d="M 0,246.791 H 1000 V 0 H 0 Z" /></clipPath></defs><g
     transform="matrix(1.3333333,0,0,-1.3333333,0,329.05467)"
     id="g10"><g
       id="g12"><g
         clip-path="url(#clipPath18)"
         id="g14"><g
           transform="translate(69.9198,99.6994)"
           id="g20"><path
             id="path22"
             style="fill:#000000;fill-opacity:1;fill-rule:nonzero;stroke:none"
             d="m 0,0 v 47.809 c 0,18.962 13.543,31.396 33.942,31.396 20.244,0 33.627,-12.434 33.627,-31.396 V 39.042 H 48.767 v 8.288 c 0,8.927 -6.058,14.501 -14.825,14.501 -9.082,0 -14.98,-5.574 -14.98,-14.501 V 0.475 c 0,-8.923 5.898,-14.501 14.98,-14.501 8.767,0 14.825,5.578 14.825,14.501 V 8.763 H 67.569 V 0 c 0,-18.966 -13.383,-31.396 -33.627,-31.396 C 13.543,-31.396 0,-18.966 0,0" /></g><g
           transform="translate(155.6506,176.9896)"
           id="g24"><path
             id="path26"
             style="fill:#000000;fill-opacity:1;fill-rule:nonzero;stroke:none"
             d="m 0,0 v -106.775 h 55.139 v 17.374 H 18.807 v 28.049 h 31.232 v 16.887 H 18.807 V -17.37 H 55.139 V 0 Z" /></g><g
           transform="translate(225.2896,98.5824)"
           id="g28"><path
             id="path30"
             style="fill:#000000;fill-opacity:1;fill-rule:nonzero;stroke:none"
             d="M 0,0 V 4.302 H 18.647 V 0 c 0,-7.809 5.419,-12.909 14.022,-12.909 8.129,0 13.388,4.94 13.388,12.909 0,21.991 -45.259,12.749 -45.259,50.039 0,19.286 12.43,30.28 31.077,30.28 19.122,0 31.393,-11.473 31.393,-28.364 V 47.809 H 44.94 v 3.827 c 0,6.851 -5.096,11.312 -12.909,11.312 -7.49,0 -12.43,-4.301 -12.43,-11.632 0,-21.675 45.263,-11.476 45.263,-50.043 0,-20.08 -12.749,-31.552 -32.035,-31.552 C 13.069,-30.279 0,-18.328 0,0" /></g><path
           id="path32"
           style="fill:#000000;fill-opacity:1;fill-rule:nonzero;stroke:none"
           d="m 307.04,70.214 h 18.803 V 176.989 H 307.04 Z" /><path
           id="path34"
           style="fill:#fbe216;fill-opacity:1;fill-rule:nonzero;stroke:none"
           d="M 930.08,70.215 H 344.628 V 177.166 H 930.08 Z" /><g
           transform="translate(436.4449,175.5019)"
           id="g36"><path
             id="path38"
             style="fill:#000000;fill-opacity:1;fill-rule:nonzero;stroke:none"
             d="m 0,0 v -103.582 h 51.017 v 16.855 H 18.24 L 18.24,0 Z" /></g><path
           id="path40"
           style="fill:#000000;fill-opacity:1;fill-rule:nonzero;stroke:none"
           d="m 501.434,71.92 h 18.24 v 103.582 h -18.24 z" /><g
           transform="translate(586.2755,175.5019)"
           id="g42"><path
             id="path44"
             style="fill:#000000;fill-opacity:1;fill-rule:nonzero;stroke:none"
             d="m 0,0 v -62.301 l 0.929,-7.111 h -1.39 L -25.971,0 h -21.488 v -103.582 h 18.244 v 62.301 l -0.774,7.119 h 1.39 l 25.355,-69.42 H 18.399 L 18.399,0 Z" /></g><g
           transform="translate(624.3568,175.5019)"
           id="g46"><path
             id="path48"
             style="fill:#000000;fill-opacity:1;fill-rule:nonzero;stroke:none"
             d="m 0,0 v -103.582 h 53.494 v 16.855 h -35.25 v 27.21 h 30.299 v 16.382 H 18.244 v 26.284 h 35.25 V 0 Z" /></g><g
           transform="translate(713.0082,175.5019)"
           id="g50"><path
             id="path52"
             style="fill:#000000;fill-opacity:1;fill-rule:nonzero;stroke:none"
             d="m 0,0 -24.426,-103.582 h 19.479 l 4.486,22.577 h 25.816 l 4.479,-22.577 H 50.087 L 25.661,0 Z m 11.903,-18.244 h 1.08 l 9.125,-46.379 H 2.783 Z" /></g><g
           transform="translate(772.2811,101.3239)"
           id="g54"><path
             id="path56"
             style="fill:#000000;fill-opacity:1;fill-rule:nonzero;stroke:none"
             d="m 0,0 v 44.774 c 0,17.759 12.688,29.404 31.792,29.404 18.954,0 31.492,-11.645 31.492,-29.404 v -8.21 H 45.671 v 7.762 c 0,8.36 -5.673,13.58 -13.879,13.58 -8.51,0 -14.029,-5.22 -14.029,-13.58 V 0.445 c 0,-8.357 5.519,-13.581 14.029,-13.581 8.206,0 13.879,5.224 13.879,13.581 V 8.207 H 63.284 V 0 c 0,-17.763 -12.538,-29.404 -31.492,-29.404 C 12.688,-29.404 0,-17.763 0,0" /></g><g
           transform="translate(845.0377,175.5019)"
           id="g58"><path
             id="path60"
             style="fill:#000000;fill-opacity:1;fill-rule:nonzero;stroke:none"
             d="m 0,0 v -16.851 h 21.949 v -86.731 h 18.244 v 86.731 H 61.991 V 0 Z" /></g></g></g></g></svg>