<?xml version="1.0" encoding="UTF-8" standalone="no"?>
<!-- Generator: Adobe Illustrator 19.0.0, SVG Export Plug-In . SVG Version: 6.00 Build 0)  -->

<svg
   version="1.1"
   id="layer"
   x="0px"
   y="0px"
   viewBox="-153 -46 600.09998 152.3"
   xml:space="preserve"
   sodipodi:docname="malakoff-humanis-vector-logo.svg"
   width="600.09998"
   height="152.3"
   inkscape:version="1.4.4 (dcaf3e7d9e, 2026-05-05)"
   xmlns:inkscape="http://www.inkscape.org/namespaces/inkscape"
   xmlns:sodipodi="http://sodipodi.sourceforge.net/DTD/sodipodi-0.dtd"
   xmlns="http://www.w3.org/2000/svg"
   xmlns:svg="http://www.w3.org/2000/svg"><defs
   id="defs1" /><sodipodi:namedview
   id="namedview1"
   pagecolor="#ffffff"
   bordercolor="#000000"
   borderopacity="0.25"
   inkscape:showpageshadow="2"
   inkscape:pageopacity="0.0"
   inkscape:pagecheckerboard="0"
   inkscape:deskcolor="#d1d1d1"
   inkscape:zoom="1.354565"
   inkscape:cx="306.37142"
   inkscape:cy="38.019586"
   inkscape:window-width="2494"
   inkscape:window-height="1523"
   inkscape:window-x="26"
   inkscape:window-y="23"
   inkscape:window-maximized="0"
   inkscape:current-layer="layer" />
<style
   type="text/css"
   id="style1">
	.st0{fill:#E7332A;}
</style>
<path
   class="st0"
   d="M 136.3,-9.1 V 22.7 H 123.5 V -7.2 c 0,-5.6 -3.3,-9.1 -8.5,-9.1 -5.2,0 -8.5,3.5 -8.5,9.1 V 22.7 H 93.7 V -7.2 c 0,-5.6 -3.2,-9.1 -8.4,-9.1 -5.2,0 -8.6,3.5 -8.6,9.1 V 22.7 H 64.1 v -48.2 h 12.7 v 7.7 c 2.8,-5.8 7.5,-8.7 14.1,-8.7 6.6,0 11.7,3.4 14,9.3 2.7,-5.8 8.1,-9.3 15,-9.3 9.9,0 16.4,7 16.4,17.4 m 47.3,-8.7 c -4.2,-5.8 -9.9,-8.7 -17,-8.7 -6.3,0 -11.6,2.3 -15.7,7 -4.2,4.8 -6.2,10.7 -6.2,18 0,7.3 2,13.3 6.2,18 4.1,4.7 9.4,7 15.7,7 7.1,0 12.8,-2.9 17,-8.7 v 7.8 h 12.8 v -48.2 h -12.8 z m -12.9,30.4 c -3.8,0 -6.8,-1.4 -9.3,-4 -2.4,-2.6 -3.7,-6 -3.7,-10 0,-8.2 5.5,-14 13,-14 7.5,0 12.9,5.9 12.9,14 0,4 -1.2,7.3 -3.6,10 -2.5,2.6 -5.5,4 -9.3,4 m 37.1,10.1 h 12.7 V -45 h -12.7 z m 60.5,-40.5 c -4.2,-5.8 -9.9,-8.7 -17,-8.7 -6.3,0 -11.6,2.3 -15.7,7 -4.2,4.8 -6.2,10.7 -6.2,18 0,7.3 2,13.3 6.2,18 4.1,4.7 9.4,7 15.7,7 7.1,0 12.8,-2.9 17,-8.7 v 7.8 h 12.8 v -48.2 h -12.8 z m -12.8,30.4 c -3.8,0 -6.8,-1.4 -9.3,-4 -2.4,-2.6 -3.7,-6 -3.7,-10 0,-8.2 5.5,-14 13,-14 7.5,0 12.9,5.9 12.9,14 0,4 -1.2,7.3 -3.6,10 -2.5,2.6 -5.5,4 -9.3,4 m 67.8,-38.1 -17.9,21 V -45 h -12.7 v 67.7 h 12.7 V -0.4 l 17.9,23.1 h 15 L 318,-2.6 338.3,-25.5 Z m 39.5,-1 c -7.5,0 -13.8,2.3 -18.6,7 -5,4.8 -7.4,10.7 -7.4,18 0,7.3 2.4,13.3 7.4,18 4.9,4.7 11.1,7 18.6,7 7.5,0 13.8,-2.3 18.6,-7 4.9,-4.7 7.3,-10.6 7.3,-18 0,-7.3 -2.4,-13.3 -7.3,-18 -4.9,-4.6 -11.1,-7 -18.6,-7 m -0.1,11.1 c 3.8,0 6.9,1.3 9.4,3.9 2.4,2.6 3.6,6 3.6,10.1 0,8.1 -5.5,14 -13,14 -7.5,0 -12.9,-5.9 -12.9,-14 0,-4.1 1.2,-7.5 3.6,-10.1 2.4,-2.7 5.5,-3.9 9.3,-3.9 m 74.9,-14.9 c 0,-3 2.2,-5 5.5,-5 1.1,0 2.4,0.2 3.9,0.7 v -11 c -1.3,-0.3 -2.6,-0.4 -4.1,-0.4 -5.3,0 -9.6,1.5 -13,4.4 -3.4,3 -5.1,6.7 -5.1,11.3 v 4.8 h -5.9 -9.4 v -4.8 c 0,-3 2.3,-5 5.5,-5 1.1,0 2.4,0.2 3.9,0.7 v -11 c -1.1,-0.3 -2.4,-0.4 -4,-0.4 -5.3,0 -9.6,1.5 -13,4.4 -3.4,3 -5.1,6.7 -5.1,11.3 v 4.8 h -6.6 V -15 h 6.7 v 37.7 h 12.7 V -15 h 9.4 5.9 v 37.7 h 12.8 V -15 h 9.4 v -10.5 h -9.4 v -4.8 M 104.8,61.4 c -3.3,-3.5 -7.6,-5.3 -13,-5.3 -6.6,0 -11.6,2.8 -15,8.5 v -27 H 64.1 v 67.7 H 76.8 V 77 c 0,-6.5 4.1,-10.7 10.2,-10.7 6,0 10,4.4 10,10.7 v 28.3 h 12.8 V 75.2 c 0,-5.6 -1.7,-10.2 -5,-13.8 m 48.4,24 c 0,6.3 -4,10.7 -10.1,10.7 -5.9,0 -10,-4.2 -10,-10.7 V 57.1 h -12.7 v 30.1 c 0,5.6 1.7,10.1 5,13.7 3.2,3.6 7.5,5.4 12.8,5.4 6.7,0 11.8,-2.7 15.1,-8.3 v 7.3 h 12.8 V 57.1 h -12.9 z m 96.9,-11.9 c 0,-10.4 -6.5,-17.4 -16.3,-17.4 -6.9,0 -12.3,3.5 -15,9.3 -2.3,-5.9 -7.4,-9.3 -14,-9.3 -6.6,0 -11.3,2.9 -14.1,8.7 V 57.1 H 178 v 48.2 h 12.7 V 75.4 c 0,-5.6 3.4,-9.1 8.6,-9.1 5.2,0 8.4,3.5 8.4,9.1 v 29.9 h 12.8 V 75.4 c 0,-5.6 3.3,-9.1 8.5,-9.1 5.2,0 8.5,3.5 8.5,9.1 v 29.9 h 12.8 V 73.5 m 47.3,-8.7 c -4.2,-5.8 -9.9,-8.7 -17,-8.7 -6.3,0 -11.6,2.3 -15.7,7 -4.2,4.8 -6.2,10.7 -6.2,18 0,7.3 2,13.3 6.2,18 4.1,4.7 9.4,7 15.7,7 7.1,0 12.8,-2.9 17,-8.7 v 7.8 h 12.8 V 57 h -12.8 z m -12.9,30.4 c -3.8,0 -6.8,-1.4 -9.3,-4 -2.4,-2.6 -3.7,-6 -3.7,-10 0,-8.2 5.5,-14 13,-14 7.5,0 12.9,5.9 12.9,14 0,4 -1.2,7.3 -3.6,10 -2.4,2.6 -5.5,4 -9.3,4 m 78.4,-33.8 c -3.3,-3.5 -7.6,-5.3 -12.9,-5.3 -6.7,0 -11.7,2.7 -15.1,8.2 v -7.2 h -12.8 v 48.2 h 12.8 V 77 c 0,-6.3 4,-10.7 10.1,-10.7 5.9,0 10,4.2 10,10.7 v 28.3 h 12.7 V 75.2 c 0,-5.6 -1.6,-10.2 -4.8,-13.8 m 22.7,-10.6 c 7,0.6 10.3,-8 5.7,-12.2 -1.5,-1.3 -3.4,-2 -5.7,-2 -4.6,0 -7.7,2.9 -7.7,7.1 0,4.1 3.1,7.1 7.7,7.1 m -6.3,54.5 h 12.7 V 57.1 h -12.8 v 48.2 z M 423,56.1 c -5.9,0 -10.6,1.4 -14.2,4.1 -3.6,2.7 -5.5,6.2 -5.5,10.6 0,6.9 5.2,11.5 15.4,14 0.3,0.1 0.8,0.2 1.5,0.3 7.8,1.7 11.3,2.9 11.3,6.4 0,3.2 -3.3,5.6 -8,5.6 -5.1,0 -8.6,-2.6 -8.9,-6.5 h -12.3 c 0,4.6 2,8.3 6,11.2 4,2.9 9.1,4.4 15.3,4.4 6.1,0 11.1,-1.4 15,-4.2 3.8,-2.8 5.8,-6.4 5.8,-10.8 0,-3.8 -1.7,-7 -3.9,-9 -3.9,-3 -8.7,-4.6 -13.1,-5.4 -8.1,-1.7 -11.6,-3 -11.6,-6.5 0,-3.1 3,-5.3 7.3,-5.3 4.7,0 7.9,2.6 8.2,6.4 h 11.6 c 0,-4.5 -1.9,-8.2 -5.6,-11 -3.7,-2.8 -8.5,-4.3 -14.3,-4.3 M -153,32.9 c 0,0 18.6,70.9 90.3,70.9 74.1,0 90.3,-70.9 90.3,-70.9 0,0 -29.2,34.4 -90.3,34.4 -60.4,0 -90.3,-34.4 -90.3,-34.4 m 0,-58.4 c 0,0 18.6,70.9 90.3,70.9 74.1,0 90.3,-70.9 90.3,-70.9 0,0 -29.2,34.4 -90.3,34.4 -60.4,-0.1 -90.3,-34.4 -90.3,-34.4"
   id="path1" />
</svg>
