<?xml version="1.0" encoding="utf-8"?>
<!-- Generator: Adobe Illustrator 19.0.0, SVG Export Plug-In . SVG Version: 6.00 Build 0)  -->
<svg version="1.1" id="layer" xmlns="http://www.w3.org/2000/svg" xmlns:xlink="http://www.w3.org/1999/xlink" x="0px" y="0px"
	 viewBox="-153 -46 652 652" style="enable-background:new -153 -46 652 652;" xml:space="preserve">
<style type="text/css">
	.st0{fill:#E7332A;}
</style>
<path class="st0" d="M158.1,237v31.8h-12.8v-29.9c0-5.6-3.3-9.1-8.5-9.1c-5.2,0-8.5,3.5-8.5,9.1v29.9h-12.8v-29.9
	c0-5.6-3.2-9.1-8.4-9.1c-5.2,0-8.6,3.5-8.6,9.1v29.9H85.9v-48.2h12.7v7.7c2.8-5.8,7.5-8.7,14.1-8.7c6.6,0,11.7,3.4,14,9.3
	c2.7-5.8,8.1-9.3,15-9.3C151.6,219.6,158.1,226.6,158.1,237 M205.4,228.3c-4.2-5.8-9.9-8.7-17-8.7c-6.3,0-11.6,2.3-15.7,7
	c-4.2,4.8-6.2,10.7-6.2,18c0,7.3,2,13.3,6.2,18c4.1,4.7,9.4,7,15.7,7c7.1,0,12.8-2.9,17-8.7v7.8h12.8v-48.2h-12.8V228.3z
	 M192.5,258.7c-3.8,0-6.8-1.4-9.3-4c-2.4-2.6-3.7-6-3.7-10c0-8.2,5.5-14,13-14c7.5,0,12.9,5.9,12.9,14c0,4-1.2,7.3-3.6,10
	C199.3,257.3,196.3,258.7,192.5,258.7 M229.6,268.8h12.7v-67.7h-12.7V268.8z M290.1,228.3c-4.2-5.8-9.9-8.7-17-8.7
	c-6.3,0-11.6,2.3-15.7,7c-4.2,4.8-6.2,10.7-6.2,18c0,7.3,2,13.3,6.2,18c4.1,4.7,9.4,7,15.7,7c7.1,0,12.8-2.9,17-8.7v7.8h12.8v-48.2
	h-12.8V228.3z M277.3,258.7c-3.8,0-6.8-1.4-9.3-4c-2.4-2.6-3.7-6-3.7-10c0-8.2,5.5-14,13-14c7.5,0,12.9,5.9,12.9,14
	c0,4-1.2,7.3-3.6,10C284.1,257.3,281.1,258.7,277.3,258.7 M345.1,220.6l-17.9,21v-40.5h-12.7v67.7h12.7v-23.1l17.9,23.1h15
	l-20.3-25.3l20.3-22.9H345.1z M384.6,219.6c-7.5,0-13.8,2.3-18.6,7c-5,4.8-7.4,10.7-7.4,18c0,7.3,2.4,13.3,7.4,18
	c4.9,4.7,11.1,7,18.6,7c7.5,0,13.8-2.3,18.6-7c4.9-4.7,7.3-10.6,7.3-18c0-7.3-2.4-13.3-7.3-18C398.3,222,392.1,219.6,384.6,219.6
	 M384.5,230.7c3.8,0,6.9,1.3,9.4,3.9c2.4,2.6,3.6,6,3.6,10.1c0,8.1-5.5,14-13,14c-7.5,0-12.9-5.9-12.9-14c0-4.1,1.2-7.5,3.6-10.1
	C377.6,231.9,380.7,230.7,384.5,230.7 M459.4,215.8c0-3,2.2-5,5.5-5c1.1,0,2.4,0.2,3.9,0.7v-11c-1.3-0.3-2.6-0.4-4.1-0.4
	c-5.3,0-9.6,1.5-13,4.4c-3.4,3-5.1,6.7-5.1,11.3v4.8h-5.9h-9.4v-4.8c0-3,2.3-5,5.5-5c1.1,0,2.4,0.2,3.9,0.7v-11
	c-1.1-0.3-2.4-0.4-4-0.4c-5.3,0-9.6,1.5-13,4.4c-3.4,3-5.1,6.7-5.1,11.3v4.8H412v10.5h6.7v37.7h12.7v-37.7h9.4h5.9v37.7h12.8v-37.7
	h9.4v-10.5h-9.4V215.8 M126.6,307.5c-3.3-3.5-7.6-5.3-13-5.3c-6.6,0-11.6,2.8-15,8.5v-27H85.9v67.7h12.7v-28.3
	c0-6.5,4.1-10.7,10.2-10.7c6,0,10,4.4,10,10.7v28.3h12.8v-30.1C131.6,315.7,129.9,311.1,126.6,307.5 M175,331.5
	c0,6.3-4,10.7-10.1,10.7c-5.9,0-10-4.2-10-10.7v-28.3h-12.7v30.1c0,5.6,1.7,10.1,5,13.7c3.2,3.6,7.5,5.4,12.8,5.4
	c6.7,0,11.8-2.7,15.1-8.3v7.3h12.8v-48.2H175V331.5z M271.9,319.6c0-10.4-6.5-17.4-16.3-17.4c-6.9,0-12.3,3.5-15,9.3
	c-2.3-5.9-7.4-9.3-14-9.3c-6.6,0-11.3,2.9-14.1,8.7v-7.7h-12.7v48.2h12.7v-29.9c0-5.6,3.4-9.1,8.6-9.1c5.2,0,8.4,3.5,8.4,9.1v29.9
	h12.8v-29.9c0-5.6,3.3-9.1,8.5-9.1s8.5,3.5,8.5,9.1v29.9h12.8V319.6 M319.4,310.9c-4.2-5.8-9.9-8.7-17-8.7c-6.3,0-11.6,2.3-15.7,7
	c-4.2,4.8-6.2,10.7-6.2,18c0,7.3,2,13.3,6.2,18c4.1,4.7,9.4,7,15.7,7c7.1,0,12.8-2.9,17-8.7v7.8h12.8v-48.2h-12.8V310.9z
	 M306.5,341.3c-3.8,0-6.8-1.4-9.3-4c-2.4-2.6-3.7-6-3.7-10c0-8.2,5.5-14,13-14c7.5,0,12.9,5.9,12.9,14c0,4-1.2,7.3-3.6,10
	C313.4,339.9,310.3,341.3,306.5,341.3 M384.9,307.5c-3.3-3.5-7.6-5.3-12.9-5.3c-6.7,0-11.7,2.7-15.1,8.2v-7.2h-12.8v48.2h12.8v-28.3
	c0-6.3,4-10.7,10.1-10.7c5.9,0,10,4.2,10,10.7v28.3h12.7v-30.1C389.7,315.7,388.1,311.1,384.9,307.5 M407.6,296.9
	c7,0.6,10.3-8,5.7-12.2c-1.5-1.3-3.4-2-5.7-2c-4.6,0-7.7,2.9-7.7,7.1C399.9,293.9,403,296.9,407.6,296.9 M401.3,351.4H414v-48.2
	h-12.8V351.4z M444.8,302.2c-5.9,0-10.6,1.4-14.2,4.1c-3.6,2.7-5.5,6.2-5.5,10.6c0,6.9,5.2,11.5,15.4,14c0.3,0.1,0.8,0.2,1.5,0.3
	c7.8,1.7,11.3,2.9,11.3,6.4c0,3.2-3.3,5.6-8,5.6c-5.1,0-8.6-2.6-8.9-6.5h-12.3c0,4.6,2,8.3,6,11.2c4,2.9,9.1,4.4,15.3,4.4
	c6.1,0,11.1-1.4,15-4.2c3.8-2.8,5.8-6.4,5.8-10.8c0-3.8-1.7-7-3.9-9c-3.9-3-8.7-4.6-13.1-5.4c-8.1-1.7-11.6-3-11.6-6.5
	c0-3.1,3-5.3,7.3-5.3c4.7,0,7.9,2.6,8.2,6.4h11.6c0-4.5-1.9-8.2-5.6-11S450.6,302.2,444.8,302.2 M-131.2,279
	c0,0,18.6,70.9,90.3,70.9c74.1,0,90.3-70.9,90.3-70.9s-29.2,34.4-90.3,34.4C-101.3,313.4-131.2,279-131.2,279 M-131.2,220.6
	c0,0,18.6,70.9,90.3,70.9c74.1,0,90.3-70.9,90.3-70.9s-29.2,34.4-90.3,34.4C-101.3,254.9-131.2,220.6-131.2,220.6"/>
</svg>
